<svg width="1616" height="1254" viewBox="0 0 1616 1254" fill="none" xmlns="http://www.w3.org/2000/svg">
<rect width="1616" height="1254" rx="90" fill="#1A9448"/>
<path d="M1061.05 469.077C647.621 368.081 713.68 123 713.68 123C713.68 123 913.789 188.763 1121.51 244.752C1329.23 300.74 1531.02 343.305 1531.02 343.305C1531.02 343.305 1268.77 525.066 1061.05 469.077Z" fill="#78E075"/>
<path d="M850.634 672.811C1186.5 934.18 1025.91 1130.75 1025.91 1130.75C1025.91 1130.75 870.252 988.842 703.646 852.735C537.041 716.629 370.349 595.196 370.349 595.196C370.349 595.196 684.028 536.704 850.634 672.811Z" fill="#78E075"/>
<path d="M261.211 753.019C517.625 1092.66 702.004 947.011 702.004 947.011C702.004 947.011 563.333 788.518 429.976 619.703C296.62 450.887 177.272 282.753 177.272 282.753C177.272 282.753 127.855 584.204 261.211 753.019Z" fill="#78E075"/>
<path d="M261.211 753.019C517.625 1092.66 702.004 947.011 702.004 947.011C702.004 947.011 563.333 788.518 429.976 619.703C296.62 450.887 177.272 282.753 177.272 282.753C177.272 282.753 127.855 584.204 261.211 753.019Z" fill="#78E075"/>
<path d="M805.539 372.888C469.618 186.097 407.908 264.158 407.908 264.158C407.908 264.158 586.458 375.853 762.721 499.198C938.984 622.543 1101.47 749.498 1101.47 749.498C1101.47 749.498 1186.29 622.998 805.539 372.888Z" fill="#78E075"/>
<path d="M672.022 379.646C658.844 418.52 616.914 439.441 578.37 426.375C539.825 413.309 519.262 371.203 532.44 332.329C545.618 293.455 587.547 272.534 626.092 285.6C664.636 298.666 685.2 340.772 672.022 379.646Z" fill="#60D75D"/>
<path d="M660.906 350.3C657.001 375.987 634.308 371.618 606.145 367.336C577.983 363.055 555.016 360.484 558.921 334.797C562.826 309.11 588.821 291.757 616.984 296.038C645.146 300.319 664.811 324.613 660.906 350.3Z" fill="#C9FFC8"/>
<path d="M801.897 455.595C788.719 494.469 746.79 515.39 708.245 502.324C669.701 489.258 649.137 447.152 662.315 408.278C675.493 369.404 717.422 348.483 755.967 361.549C794.511 374.616 815.075 416.721 801.897 455.595Z" fill="#60D75D"/>
<path d="M790.802 422.266C786.897 447.953 764.204 443.583 736.041 439.302C707.879 435.021 684.912 432.45 688.817 406.763C692.722 381.075 718.717 363.722 746.88 368.003C775.042 372.284 794.707 396.578 790.802 422.266Z" fill="#C9FFC8"/>
<path d="M927.324 544.668C914.146 583.542 872.217 604.463 833.672 591.397C795.128 578.33 774.564 536.225 787.742 497.351C800.92 458.477 842.849 437.556 881.394 450.622C919.938 463.688 940.502 505.794 927.324 544.668Z" fill="#60D75D"/>
<path d="M909.071 508.912C905.166 534.599 882.473 530.229 854.31 525.948C826.148 521.667 803.181 519.096 807.086 493.408C810.991 467.721 836.986 450.368 865.149 454.649C893.311 458.93 912.976 483.224 909.071 508.912Z" fill="#C9FFC8"/>
<path d="M1047.57 633.316C1034.4 672.19 992.468 693.111 953.923 680.044C915.379 666.978 894.815 624.872 907.993 585.998C921.171 547.125 963.1 526.203 1001.64 539.27C1040.19 552.336 1060.75 594.442 1047.57 633.316Z" fill="#60D75D"/>
<path d="M1028.13 597.155C1024.22 622.842 1001.53 618.473 973.368 614.192C945.206 609.911 922.239 607.339 926.144 581.652C930.048 555.965 956.044 538.612 984.206 542.893C1012.37 547.174 1032.03 571.468 1028.13 597.155Z" fill="#C9FFC8"/>
<path d="M742.8 601.398C392.104 360.476 417.454 269.288 417.454 269.288C417.454 269.288 606.13 395.058 782.393 518.403C958.656 641.747 1111.02 754.628 1111.02 754.628C1111.02 754.628 919.063 724.743 742.8 601.398Z" fill="#AEFAAD"/>
</svg>