<svg width="1118" height="153" viewBox="0 0 1118 153" fill="none" xmlns="http://www.w3.org/2000/svg">
<path d="M49.7617 153C39.7422 153 31.0586 151.107 23.7109 147.322C16.3633 143.463 10.6484 138.305 6.56641 131.848C2.55859 125.391 0.554688 118.303 0.554688 110.584V42.8965C0.554688 35.1035 2.55859 28.0156 6.56641 21.6328C10.6484 15.1758 16.3633 10.0547 23.7109 6.26953C31.0586 2.41016 39.7422 0.480469 49.7617 0.480469H84.0508C94.0703 0.480469 102.754 2.41016 110.102 6.26953C117.523 10.0547 123.238 15.1758 127.246 21.6328C131.254 28.0156 133.258 35.1035 133.258 42.8965V110.584C133.258 118.303 131.254 125.391 127.246 131.848C123.238 138.305 117.523 143.463 110.102 147.322C102.754 151.107 94.0703 153 84.0508 153H49.7617ZM37.5156 102.568H87.168L98.6348 101.232L105.648 94.2188L107.207 84.6445V28.5352L105.648 19.1836L98.6348 12.0586L87.168 10.5H37.5156V102.568ZM49.0938 90.7676V22.3008H86.5L94.293 23.5254L95.4062 30.0938V83.4199L93.8477 89.6543L86.5 90.7676H49.0938ZM177.014 153C166.995 153 158.311 151.107 150.963 147.322C143.616 143.463 137.901 138.305 133.819 131.848C129.811 125.391 127.807 118.303 127.807 110.584V42.8965C127.807 35.1035 129.811 28.0156 133.819 21.6328C137.901 15.1758 143.616 10.0547 150.963 6.26953C158.311 2.41016 166.995 0.480469 177.014 0.480469C187.108 0.480469 195.829 2.41016 203.176 6.26953C210.524 10.0547 216.202 15.1758 220.21 21.6328C224.292 28.0156 226.333 35.1035 226.333 42.8965V110.584C226.333 118.303 224.292 125.391 220.21 131.848C216.202 138.305 210.524 143.463 203.176 147.322C195.829 151.107 187.108 153 177.014 153ZM169.778 102.568H184.362V88.207H169.778V102.568ZM270.2 153C260.181 153 251.497 151.107 244.15 147.322C236.802 143.463 231.087 138.305 227.005 131.848C222.997 125.391 220.993 118.303 220.993 110.584V42.8965C220.993 35.1035 222.997 28.0156 227.005 21.6328C231.087 15.1758 236.802 10.0547 244.15 6.26953C251.497 2.41016 260.181 0.480469 270.2 0.480469H304.489C314.509 0.480469 323.193 2.41016 330.54 6.26953C337.962 10.0547 343.677 15.1758 347.685 21.6328C351.693 28.0156 353.696 35.1035 353.696 42.8965V110.584C353.696 118.303 351.693 125.391 347.685 131.848C343.677 138.305 337.962 143.463 330.54 147.322C323.193 151.107 314.509 153 304.489 153H270.2ZM257.954 102.568H307.607L319.073 101.232L326.087 94.2188L327.646 84.6445V28.5352L326.087 19.1836L319.073 12.0586L307.607 10.5H257.954V102.568ZM269.532 90.7676V22.3008H306.939L314.732 23.5254L315.845 30.0938V83.4199L314.286 89.6543L306.939 90.7676H269.532ZM397.453 153C387.433 153 378.75 151.107 371.402 147.322C364.054 143.463 358.34 138.305 354.258 131.848C350.25 125.391 348.246 118.303 348.246 110.584V42.8965C348.246 35.1035 350.25 28.0156 354.258 21.6328C358.34 15.1758 364.054 10.0547 371.402 6.26953C378.75 2.41016 387.433 0.480469 397.453 0.480469H431.742C441.761 0.480469 450.445 2.41016 457.793 6.26953C465.215 10.0547 470.929 15.1758 474.937 21.6328C478.945 28.0156 480.949 35.1035 480.949 42.8965V110.584C480.949 118.303 478.945 125.391 474.937 131.848C470.929 138.305 465.215 143.463 457.793 147.322C450.445 151.107 441.761 153 431.742 153H397.453ZM393.445 102.568H449.443V90.7676H405.023V62.4902H442.207V50.8008H405.023V22.3008H447.884V10.5H393.445V102.568ZM524.705 153C514.686 153 506.002 151.107 498.655 147.322C491.307 143.463 485.592 138.305 481.51 131.848C477.502 125.391 475.498 118.303 475.498 110.584V42.8965C475.498 35.1035 477.502 28.0156 481.51 21.6328C485.592 15.1758 491.307 10.0547 498.655 6.26953C506.002 2.41016 514.686 0.480469 524.705 0.480469H558.994C569.014 0.480469 577.698 2.41016 585.045 6.26953C592.467 10.0547 598.182 15.1758 602.19 21.6328C606.198 28.0156 608.201 35.1035 608.201 42.8965V110.584C608.201 118.303 606.198 125.391 602.19 131.848C598.182 138.305 592.467 143.463 585.045 147.322C577.698 151.107 569.014 153 558.994 153H524.705ZM542.073 102.568H553.985V22.3008H580.147V10.5H515.799V22.3008H542.073V102.568ZM651.958 153C641.938 153 633.255 151.107 625.907 147.322C618.559 143.463 612.845 138.305 608.763 131.848C604.755 125.391 602.751 118.303 602.751 110.584V42.8965C602.751 35.1035 604.755 28.0156 608.763 21.6328C612.845 15.1758 618.559 10.0547 625.907 6.26953C633.255 2.41016 641.938 0.480469 651.958 0.480469H686.247C696.266 0.480469 704.95 2.41016 712.298 6.26953C719.72 10.0547 725.434 15.1758 729.442 21.6328C733.45 28.0156 735.454 35.1035 735.454 42.8965V110.584C735.454 118.303 733.45 125.391 729.442 131.848C725.434 138.305 719.72 143.463 712.298 147.322C704.95 151.107 696.266 153 686.247 153H651.958ZM657.97 102.568H684.8L697.825 101.01L695.042 88.9863L684.577 90.7676H658.638L651.29 89.6543L649.731 82.9746V29.4258L650.845 23.3027L658.638 22.0781H684.132L695.598 23.9707L697.825 12.0586L684.8 10.5H657.97L646.503 11.8359L639.489 18.9609L637.819 28.3125V84.8672L639.489 94.2188L646.725 101.232L657.97 102.568ZM779.21 153C769.191 153 760.507 151.107 753.16 147.322C745.812 143.463 740.097 138.305 736.015 131.848C732.007 125.391 730.003 118.303 730.003 110.584V42.8965C730.003 35.1035 732.007 28.0156 736.015 21.6328C740.097 15.1758 745.812 10.0547 753.16 6.26953C760.507 2.41016 769.191 0.480469 779.21 0.480469H813.499C823.519 0.480469 832.203 2.41016 839.55 6.26953C846.972 10.0547 852.687 15.1758 856.695 21.6328C860.703 28.0156 862.706 35.1035 862.706 42.8965V110.584C862.706 118.303 860.703 125.391 856.695 131.848C852.687 138.305 846.972 143.463 839.55 147.322C832.203 151.107 823.519 153 813.499 153H779.21ZM766.964 102.568H778.765V61.1543H825.078V102.568H836.656V10.5H825.078V49.4648H778.765V10.5H766.964V102.568ZM906.463 153C896.443 153 887.76 151.107 880.412 147.322C873.064 143.463 867.35 138.305 863.268 131.848C859.26 125.391 857.256 118.303 857.256 110.584V42.8965C857.256 35.1035 859.26 28.0156 863.268 21.6328C867.35 15.1758 873.064 10.0547 880.412 6.26953C887.76 2.41016 896.443 0.480469 906.463 0.480469H940.752C950.771 0.480469 959.455 2.41016 966.803 6.26953C974.225 10.0547 979.939 15.1758 983.947 21.6328C987.955 28.0156 989.959 35.1035 989.959 42.8965V110.584C989.959 118.303 987.955 125.391 983.947 131.848C979.939 138.305 974.225 143.463 966.803 147.322C959.455 151.107 950.771 153 940.752 153H906.463ZM913.81 102.568H943.646L955.113 101.232L962.127 94.2188L963.685 84.6445V28.5352L962.127 19.1836L955.113 12.0586L943.646 10.5H913.81L902.455 12.0586L895.33 19.1836L893.994 28.5352V84.6445L895.33 94.2188L902.678 101.232L913.81 102.568ZM914.478 90.7676L907.242 89.6543L905.572 82.9746V29.6484L906.685 23.5254L914.478 22.3008H942.978L950.771 23.5254L951.885 30.0938V83.4199L950.326 89.6543L942.978 90.7676H914.478ZM1033.72 153C1023.7 153 1015.01 151.107 1007.66 147.322C1000.32 143.463 994.602 138.305 990.52 131.848C986.512 125.391 984.508 118.303 984.508 110.584V42.8965C984.508 35.1035 986.512 28.0156 990.52 21.6328C994.602 15.1758 1000.32 10.0547 1007.66 6.26953C1015.01 2.41016 1023.7 0.480469 1033.72 0.480469H1068C1078.02 0.480469 1086.71 2.41016 1094.06 6.26953C1101.48 10.0547 1107.19 15.1758 1111.2 21.6328C1115.21 28.0156 1117.21 35.1035 1117.21 42.8965V110.584C1117.21 118.303 1115.21 125.391 1111.2 131.848C1107.19 138.305 1101.48 143.463 1094.06 147.322C1086.71 151.107 1078.02 153 1068 153H1033.72ZM1020.8 102.568H1032.6V23.5254L1041.29 22.0781H1068L1075.69 23.3027L1076.8 29.8711V102.568H1088.71V28.3125L1087.15 18.9609L1080.03 11.8359L1068.67 10.5H1040.84L1020.8 13.2832V102.568Z" fill="black"/>
</svg>
