<svg width="247" height="159" viewBox="0 0 247 159" fill="none" xmlns="http://www.w3.org/2000/svg">
<path d="M0.360001 159V0.311991H59.412C70.964 0.311991 81.604 3.19999 91.332 8.97599C101.212 14.752 109.04 22.58 114.816 32.46C120.592 42.188 123.48 52.828 123.48 64.38V94.932C123.48 106.484 120.592 117.2 114.816 127.08C109.04 136.808 101.212 144.56 91.332 150.336C81.604 156.112 70.964 159 59.412 159H0.360001ZM123.533 159V0.311991H182.585C194.137 0.311991 204.777 3.19999 214.505 8.97599C224.385 14.752 232.213 22.58 237.989 32.46C243.765 42.188 246.653 52.828 246.653 64.38V94.932C246.653 106.484 243.765 117.2 237.989 127.08C232.213 136.808 224.385 144.56 214.505 150.336C204.777 156.112 194.137 159 182.585 159H123.533Z" fill="black"/>
</svg>
