<svg width="394" height="185" viewBox="0 0 394 185" fill="none" xmlns="http://www.w3.org/2000/svg">
<path d="M48.4473 136.906V48.7344C48.4473 48.7344 66.668 48.7344 103.109 48.7344C111.941 48.7344 119.512 53.0762 125.82 61.7598C132.203 70.3691 135.395 80.7227 135.395 92.8203C135.395 104.992 132.203 115.383 125.82 123.992C119.512 132.602 111.941 136.906 103.109 136.906H48.4473ZM56.4629 128.891H103.109C109.715 128.891 115.355 125.365 120.031 118.314C124.781 111.264 127.156 102.766 127.156 92.8203C127.156 82.8008 124.781 74.3027 120.031 67.3262C115.355 60.2754 109.715 56.75 103.109 56.75H56.4629V128.891ZM40.4316 144.922H103.109C114.168 144.922 123.668 139.838 131.609 129.67C139.625 119.428 143.633 107.145 143.633 92.8203C143.633 83.3945 141.777 74.6738 138.066 66.6582C134.43 58.6426 129.494 52.334 123.26 47.7324C117.1 43.0566 110.383 40.7188 103.109 40.7188H40.4316V144.922ZM32.416 152.938V32.7031H103.109C111.793 32.7031 119.883 35.375 127.379 40.7188C134.875 46.0625 140.812 53.373 145.191 62.6504C149.645 71.8535 151.871 81.9102 151.871 92.8203C151.871 103.656 149.645 113.713 145.191 122.99C140.812 132.268 134.875 139.578 127.379 144.922C119.883 150.266 111.793 152.938 103.109 152.938H32.416ZM24.4004 160.953H103.109C113.277 160.953 122.703 157.91 131.387 151.824C140.145 145.738 147.121 137.463 152.316 126.998C157.512 116.533 160.109 105.141 160.109 92.8203C160.109 80.5742 157.512 69.2188 152.316 58.7539C147.121 48.2148 140.145 39.9023 131.387 33.8164C122.629 27.7305 113.203 24.6875 103.109 24.6875H24.4004V160.953ZM16.3848 168.969V16.6719H103.109C114.688 16.6719 125.486 20.0859 135.506 26.9141C145.525 33.668 153.504 42.9082 159.441 54.6348C165.379 66.3613 168.348 79.0898 168.348 92.8203C168.348 106.551 165.379 119.279 159.441 131.006C153.504 142.732 145.525 152.01 135.506 158.838C125.486 165.592 114.688 168.969 103.109 168.969H16.3848ZM8.36914 176.984H103.109C112.832 176.984 122.221 174.758 131.275 170.305C140.33 165.852 148.16 159.877 154.766 152.381C161.371 144.885 166.641 135.941 170.574 125.551C174.582 115.086 176.586 104.176 176.586 92.8203C176.586 81.4648 174.582 70.5918 170.574 60.2012C166.641 49.8105 161.371 40.8672 154.766 33.3711C148.16 25.8008 140.33 19.7891 131.275 15.3359C122.221 10.8828 112.832 8.65625 103.109 8.65625H8.36914V176.984ZM103.109 185H0.353516V0.640625H103.109C117.582 0.640625 131.09 4.75977 143.633 12.998C156.176 21.2363 166.158 32.4434 173.58 46.6191C181.076 60.7949 184.824 76.1953 184.824 92.8203C184.824 105.289 182.598 117.238 178.145 128.668C173.766 140.023 167.902 149.82 160.555 158.059C153.207 166.297 144.486 172.865 134.393 177.764C124.373 182.588 113.945 185 103.109 185ZM257.459 136.906V48.7344C257.459 48.7344 275.68 48.7344 312.121 48.7344C320.953 48.7344 328.524 53.0762 334.832 61.7598C341.215 70.3691 344.406 80.7227 344.406 92.8203C344.406 104.992 341.215 115.383 334.832 123.992C328.524 132.602 320.953 136.906 312.121 136.906H257.459ZM265.475 128.891H312.121C318.727 128.891 324.367 125.365 329.043 118.314C333.793 111.264 336.168 102.766 336.168 92.8203C336.168 82.8008 333.793 74.3027 329.043 67.3262C324.367 60.2754 318.727 56.75 312.121 56.75H265.475V128.891ZM249.444 144.922H312.121C323.18 144.922 332.68 139.838 340.621 129.67C348.637 119.428 352.645 107.145 352.645 92.8203C352.645 83.3945 350.789 74.6738 347.078 66.6582C343.442 58.6426 338.506 52.334 332.272 47.7324C326.111 43.0566 319.395 40.7188 312.121 40.7188H249.444V144.922ZM241.428 152.938V32.7031H312.121C320.805 32.7031 328.895 35.375 336.391 40.7188C343.887 46.0625 349.824 53.373 354.203 62.6504C358.656 71.8535 360.883 81.9102 360.883 92.8203C360.883 103.656 358.656 113.713 354.203 122.99C349.824 132.268 343.887 139.578 336.391 144.922C328.895 150.266 320.805 152.938 312.121 152.938H241.428ZM233.412 160.953H312.121C322.289 160.953 331.715 157.91 340.399 151.824C349.156 145.738 356.133 137.463 361.328 126.998C366.524 116.533 369.121 105.141 369.121 92.8203C369.121 80.5742 366.524 69.2188 361.328 58.7539C356.133 48.2148 349.156 39.9023 340.399 33.8164C331.641 27.7305 322.215 24.6875 312.121 24.6875H233.412V160.953ZM225.397 168.969V16.6719H312.121C323.699 16.6719 334.498 20.0859 344.518 26.9141C354.537 33.668 362.516 42.9082 368.453 54.6348C374.391 66.3613 377.36 79.0898 377.36 92.8203C377.36 106.551 374.391 119.279 368.453 131.006C362.516 142.732 354.537 152.01 344.518 158.838C334.498 165.592 323.699 168.969 312.121 168.969H225.397ZM217.381 176.984H312.121C321.844 176.984 331.233 174.758 340.287 170.305C349.342 165.852 357.172 159.877 363.777 152.381C370.383 144.885 375.652 135.941 379.586 125.551C383.594 115.086 385.598 104.176 385.598 92.8203C385.598 81.4648 383.594 70.5918 379.586 60.2012C375.652 49.8105 370.383 40.8672 363.777 33.3711C357.172 25.8008 349.342 19.7891 340.287 15.3359C331.233 10.8828 321.844 8.65625 312.121 8.65625H217.381V176.984ZM312.121 185H209.365V0.640625H312.121C326.594 0.640625 340.102 4.75977 352.645 12.998C365.188 21.2363 375.17 32.4434 382.592 46.6191C390.088 60.7949 393.836 76.1953 393.836 92.8203C393.836 105.289 391.61 117.238 387.156 128.668C382.777 140.023 376.914 149.82 369.567 158.059C362.219 166.297 353.498 172.865 343.404 177.764C333.385 182.588 322.957 185 312.121 185Z" fill="black"/>
</svg>
